<?xml version="1.0" standalone="no"?>
<!DOCTYPE svg PUBLIC "-//W3C//DTD SVG 20010904//EN"
 "http://www.w3.org/TR/2001/REC-SVG-20010904/DTD/svg10.dtd">
<svg version="1.0" xmlns="http://www.w3.org/2000/svg"
 width="853.000000pt" height="853.000000pt" viewBox="0 0 853.000000 853.000000"
 preserveAspectRatio="xMidYMid meet">
<metadata>
Created by potrace 1.14, written by Peter Selinger 2001-2017
</metadata>
<g transform="translate(0.000000,853.000000) scale(0.100000,-0.100000)"
fill="#000000" stroke="none">
<path d="M3840 8510 c-36 -5 -87 -12 -115 -15 -162 -19 -278 -46 -307 -72 -12
-11 -18 -30 -18 -57 1 -40 42 -231 53 -242 2 -3 54 4 113 15 132 25 387 51
499 51 99 0 95 -7 95 157 0 104 -2 114 -24 140 -23 27 -28 28 -128 30 -56 1
-132 -3 -168 -7z"/>
<path d="M4385 8511 c-46 -19 -58 -47 -66 -153 -5 -57 -10 -116 -11 -133 l-3
-30 110 -6 c61 -4 119 -7 131 -8 l21 -1 7 -951 7 -951 -35 -38 c-76 -84 -73
-194 7 -267 l34 -31 -2 -111 c-4 -125 -11 -171 -28 -171 -9 0 -9 -2 0 -8 9 -6
12 -47 3 -47 0 0 -3 -24 -6 -54 -2 -30 -10 -61 -16 -69 -7 -8 -11 -27 -10 -42
2 -28 -13 -48 -26 -35 -3 3 0 10 8 15 8 5 11 13 6 17 -5 4 -11 2 -13 -4 -8
-22 -33 -14 -33 10 0 15 -3 18 -8 9 -6 -9 -15 -5 -33 15 -13 14 -18 23 -11 19
6 -4 12 -3 12 3 0 5 -10 11 -22 14 l-23 4 24 10 c27 11 16 24 -15 19 -10 -2
-18 -10 -16 -17 6 -24 -127 113 -199 205 -101 129 -172 290 -205 463 -12 68
-15 126 -11 258 5 203 29 310 101 453 48 96 54 123 33 140 -52 44 -212 -11
-356 -123 -61 -46 -166 -154 -231 -237 -84 -105 -173 -315 -205 -484 -24 -121
-24 -351 -1 -459 38 -178 120 -368 231 -535 52 -79 309 -345 405 -419 360
-281 552 -560 616 -897 30 -160 23 -491 -14 -584 -3 -8 -7 -22 -8 -30 -7 -41
-54 -145 -64 -142 -7 1 -10 -3 -8 -10 7 -20 -41 -110 -54 -102 -6 4 -8 3 -5
-3 4 -5 -2 -19 -11 -29 -10 -10 -28 -34 -41 -52 -12 -18 -27 -29 -33 -26 -6 4
-8 3 -5 -3 9 -15 -49 -67 -64 -58 -7 5 -10 4 -6 -2 10 -15 -27 -45 -47 -37
-12 5 -15 2 -10 -10 6 -14 -5 -21 -28 -17 -5 0 -7 -4 -5 -9 1 -6 -11 -18 -26
-28 -27 -16 -29 -16 -43 2 -8 11 -14 15 -14 10 0 -6 5 -15 11 -21 12 -12 -13
-29 -111 -71 -76 -32 -95 -38 -86 -24 4 7 2 12 -3 12 -6 0 -11 -6 -11 -14 0
-23 -156 -72 -192 -60 -12 3 -18 2 -15 -4 18 -28 -362 -53 -524 -34 -216 26
-455 97 -627 187 -93 50 -265 167 -362 247 -79 66 -203 203 -198 219 2 6 42
21 88 33 198 51 301 158 301 311 0 154 -103 259 -307 311 l-70 17 -22 96 c-13
53 -37 124 -54 159 -120 241 -421 247 -550 12 -18 -33 -36 -56 -40 -52 -15 15
-58 239 -68 354 -15 173 -25 155 84 150 71 -3 107 0 147 13 136 45 214 139
218 262 4 115 -58 209 -195 300 l-84 55 7 41 c15 81 8 269 -10 310 -40 86
-138 161 -230 173 -57 8 -157 -18 -210 -55 -39 -26 -64 -52 -169 -168 l-37
-41 -118 5 c-65 3 -120 7 -122 9 -8 7 75 225 140 368 236 516 627 1032 1064
1403 l50 43 -40 32 c-22 18 -79 68 -128 111 l-88 77 -57 -52 c-365 -339 -533
-530 -747 -847 -132 -196 -184 -285 -289 -503 -107 -220 -207 -477 -265 -687
-52 -182 -107 -438 -121 -561 -6 -52 -14 -106 -17 -120 -12 -50 -15 -803 -4
-910 7 -58 14 -130 17 -160 11 -108 75 -427 114 -571 179 -661 522 -1266 1000
-1763 431 -448 849 -738 1425 -989 703 -306 1460 -409 2260 -307 649 83 1318
332 1860 693 214 142 535 413 710 598 627 665 1005 1469 1120 2386 14 110 16
207 12 600 -3 426 -5 479 -25 593 -59 336 -131 586 -265 920 -299 747 -767
1357 -1412 1840 -554 415 -1187 682 -1900 801 -186 31 -495 48 -540 30z m645
-387 c521 -103 1030 -314 1445 -599 412 -282 727 -589 1013 -983 85 -118 141
-202 177 -269 l25 -48 -22 -19 c-13 -10 -88 -51 -168 -92 -80 -40 -191 -98
-247 -128 l-101 -56 -58 103 c-32 56 -77 132 -101 169 l-42 67 122 85 c67 46
132 95 144 108 47 50 50 109 7 152 -30 29 -64 37 -101 21 -33 -14 -234 -157
-253 -180 -21 -26 -37 -17 -87 48 -26 34 -85 103 -130 154 -46 50 -83 95 -83
100 1 4 53 49 116 98 114 89 144 124 144 165 0 49 -60 110 -108 110 -23 0
-102 -57 -221 -161 l-83 -71 -67 64 c-52 51 -168 152 -189 164 -2 2 37 50 86
108 107 124 116 138 108 180 -15 79 -108 115 -163 64 -18 -17 -183 -212 -199
-236 -1 -2 -37 22 -80 53 -252 181 -660 352 -989 414 -119 23 -105 -9 -105
237 l0 216 43 -7 c23 -4 98 -18 167 -31z m-79 -659 c172 -39 295 -79 461 -149
l37 -16 -46 -82 c-25 -46 -47 -84 -48 -86 -2 -2 -43 17 -91 41 -107 53 -239
103 -354 133 l-85 22 -3 81 c-2 54 1 81 8 81 6 0 61 -11 121 -25z m794 -324
c50 -32 90 -64 90 -70 0 -15 -117 -180 -128 -181 -9 0 -161 119 -165 130 -2 4
6 24 17 44 12 20 32 59 46 86 14 28 31 50 38 49 6 0 53 -26 102 -58z m-799
-87 c88 -25 256 -94 289 -118 15 -11 9 -28 -69 -185 -47 -95 -86 -181 -86
-191 0 -11 10 -31 23 -46 18 -20 35 -28 74 -31 48 -5 52 -4 76 28 14 19 58 95
98 169 40 74 74 136 75 138 8 11 254 -196 254 -214 0 -5 -12 -26 -26 -45 -14
-19 -36 -55 -50 -80 -18 -33 -35 -49 -60 -58 -123 -45 -185 -198 -119 -295
l25 -38 -46 -66 c-26 -37 -60 -86 -76 -109 -29 -43 -61 -50 -51 -12 4 14 0 19
-16 19 -13 0 -19 -4 -16 -10 4 -6 11 -8 16 -5 5 4 9 1 9 -4 0 -6 -6 -11 -12
-11 -7 0 -4 -6 7 -12 28 -15 28 -15 20 -28 -4 -7 -15 -4 -33 8 -50 35 -53 35
-41 9 6 -14 19 -23 31 -23 32 1 33 -23 1 -34 -15 -6 -38 -16 -51 -22 -21 -11
-22 -13 -5 -19 11 -4 21 -1 26 7 4 8 12 14 18 14 6 0 -2 -16 -17 -35 -15 -20
-29 -33 -33 -30 -3 3 1 10 8 14 8 5 9 11 3 15 -5 3 -15 -1 -22 -9 -7 -8 -18
-15 -24 -15 -7 0 -6 3 2 8 15 10 23 47 15 67 -3 8 -9 13 -13 10 -4 -3 -13 2
-20 10 -11 13 -10 14 5 9 12 -5 16 -4 12 3 -9 14 2 45 13 38 5 -3 6 -14 3 -25
-3 -12 0 -20 7 -20 7 0 10 -7 7 -15 -11 -26 10 -25 22 1 6 15 7 23 1 19 -5 -3
-10 -1 -10 5 0 6 -4 8 -10 5 -5 -3 -10 -1 -10 4 0 6 5 11 10 11 6 0 10 5 10
11 0 5 -4 8 -10 4 -5 -3 -7 9 -5 30 4 28 2 35 -12 35 -12 0 -6 10 20 34 20 18
37 41 37 50 0 11 5 14 12 10 6 -4 8 -3 5 3 -4 6 -3 30 1 54 13 75 -48 172
-118 185 -17 4 -34 21 -52 54 -15 26 -44 61 -64 76 -31 24 -49 29 -111 32
l-73 4 0 319 c0 369 -15 334 126 293z m1116 -131 c63 -51 178 -156 178 -163 0
-8 -196 -169 -214 -176 -7 -3 -47 34 -89 80 l-78 85 44 54 c24 30 59 75 76
101 18 25 36 46 40 46 5 0 24 -12 43 -27z m389 -378 c158 -167 501 -678 473
-705 -5 -5 -108 -52 -229 -105 -121 -53 -249 -110 -285 -126 l-65 -29 -3 28
c-25 281 -91 543 -181 721 -18 35 -31 64 -29 65 2 2 46 35 98 74 52 39 111 84
130 101 19 17 36 30 37 31 1 0 25 -25 54 -55z m-2739 -168 c-7 -237 32 -408
139 -617 95 -185 220 -327 479 -543 412 -343 595 -578 733 -943 130 -341 151
-805 54 -1169 -34 -125 -51 -175 -59 -175 -5 0 -8 -8 -8 -18 0 -10 -20 -58
-44 -107 -25 -49 -44 -91 -42 -92 1 -1 38 12 82 29 142 56 249 36 338 -62 72
-80 81 -113 81 -305 0 -153 -2 -173 -20 -205 -39 -65 -99 -84 -150 -46 -18 13
-20 29 -25 183 -5 150 -8 173 -27 203 -40 65 -98 82 -164 50 -56 -27 -80 -60
-88 -122 l-6 -51 -84 -33 c-91 -37 -111 -41 -111 -21 0 24 -51 122 -85 163
-40 49 -123 106 -180 124 -82 26 -82 25 -20 92 164 177 268 394 316 658 21
113 18 431 -4 543 -55 274 -188 540 -380 757 -81 92 -168 173 -347 321 -225
187 -347 332 -435 513 -85 175 -116 319 -110 501 6 170 45 310 125 449 24 42
44 76 45 76 0 0 -1 -69 -3 -153z m2121 -16 c24 -63 65 -107 109 -116 75 -16
77 -48 5 -69 -63 -18 -92 -46 -115 -112 -25 -68 -44 -68 -72 1 -26 64 -51 87
-121 110 -71 24 -64 50 21 80 58 20 76 38 96 94 33 88 48 90 77 12z m-937
-128 c30 -76 37 -83 95 -104 69 -25 71 -48 3 -68 -49 -15 -89 -55 -99 -100
-10 -48 -33 -47 -54 2 -22 51 -50 77 -104 97 -58 22 -55 43 13 77 41 21 60 38
75 68 41 80 49 83 71 28z m2968 -345 c35 -73 87 -198 115 -278 29 -80 56 -156
61 -170 5 -14 21 -70 36 -125 78 -297 134 -667 134 -887 l0 -78 -212 6 c-117
3 -238 7 -268 9 -30 2 -91 4 -135 5 l-80 0 -2 168 c0 98 -8 206 -17 261 -9 52
-14 96 -12 98 2 2 84 24 181 48 208 51 230 64 230 141 0 39 -5 50 -33 75 -20
18 -43 29 -62 29 -16 0 -102 -18 -191 -40 -89 -21 -165 -37 -169 -35 -4 2 -10
24 -13 47 -9 64 -81 293 -137 435 -28 69 -50 129 -50 134 0 4 28 24 63 43 123
69 472 246 485 246 7 0 42 -60 76 -132z m-1795 -28 c21 -91 41 -248 41 -329 0
-43 -2 -50 -17 -45 -15 5 -15 4 -3 -4 16 -12 26 -72 11 -72 -5 0 -7 8 -4 18 4
18 -11 38 -32 42 -5 1 -9 6 -8 11 2 4 -4 6 -13 2 -11 -4 -12 -8 -4 -13 17 -10
-6 -24 -27 -16 -11 5 -14 2 -9 -10 4 -11 2 -15 -6 -12 -7 3 -23 -5 -35 -18
-22 -22 -22 -23 -3 -29 11 -3 23 -4 28 -1 4 2 9 -5 9 -17 2 -16 0 -18 -6 -8
-9 14 -31 7 -31 -10 0 -6 5 -7 10 -4 6 3 10 1 10 -5 0 -7 -6 -10 -14 -7 -7 3
-19 0 -25 -6 -9 -9 -14 -8 -21 3 -7 11 -5 16 8 18 30 7 37 21 16 37 -10 8 -14
15 -9 15 6 0 3 5 -5 11 -13 9 -13 10 0 6 17 -4 40 16 40 35 0 8 -4 6 -11 -5
-8 -14 -14 -15 -32 -5 -27 14 -52 38 -40 38 5 0 18 -6 28 -14 41 -30 115 32
115 97 0 42 -29 87 -57 87 -7 0 -13 5 -13 12 0 9 -3 9 -12 0 -7 -7 -22 -12
-34 -12 -24 0 -64 -46 -64 -73 0 -8 -6 -20 -14 -26 -11 -10 -17 -8 -25 6 -6
10 -11 13 -11 7 0 -17 21 -33 39 -27 9 3 12 1 6 -4 -12 -10 -14 -62 -3 -64 4
-1 14 -2 21 -3 14 -2 11 -49 -3 -54 -6 -2 -17 -10 -24 -18 -12 -11 -15 -10
-19 6 -3 11 -1 17 4 14 15 -9 39 15 32 32 -3 8 -11 13 -18 11 -7 -3 -11 5 -11
21 1 15 -3 29 -9 31 -5 2 -15 15 -21 30 l-11 26 0 -27 c0 -17 7 -30 21 -37 18
-10 16 -11 -14 -6 -27 4 -31 2 -17 -6 9 -5 17 -17 17 -26 0 -22 -29 -53 -49
-52 -10 0 -6 4 9 11 15 6 20 12 13 15 -7 3 -13 9 -13 15 0 6 7 8 15 4 22 -8
18 7 -5 21 -16 10 -18 10 -14 -1 3 -7 -1 -16 -9 -19 -10 -4 -13 2 -11 19 1 13
-3 27 -8 31 -6 3 -8 1 -4 -5 3 -6 1 -14 -5 -18 -8 -4 -9 -3 -5 4 4 7 1 12 -6
12 -10 0 -10 2 1 9 8 5 20 7 28 4 7 -3 13 0 13 6 0 7 -14 10 -37 7 -36 -5 -37
-4 -18 11 19 15 19 15 -10 9 l-30 -6 24 14 c23 13 23 14 5 18 -10 2 -24 -3
-30 -11 -8 -10 -13 -11 -18 -3 -4 7 -2 12 3 12 6 0 11 11 11 25 0 14 -5 25
-11 25 -6 0 -8 7 -4 18 4 12 3 14 -5 6 -7 -7 -8 -19 -1 -37 7 -16 7 -27 1 -27
-12 0 -28 32 -24 45 6 17 -107 17 -132 0 -19 -13 -23 -12 -28 1 -4 10 -2 13 7
8 7 -5 7 -1 -2 10 -8 9 -20 15 -28 12 -16 -7 -5 18 24 49 10 12 19 27 21 35 2
8 7 17 11 20 3 3 15 19 26 35 l19 30 8 -25 c6 -21 7 -20 3 7 -3 23 0 35 13 42
9 6 13 11 8 11 -5 0 -3 7 4 15 7 8 17 12 23 8 6 -3 7 -1 3 5 -4 7 1 23 11 37
20 27 33 32 33 12 0 -23 61 -87 97 -102 68 -29 156 -15 206 32 16 16 46 53 65
83 l36 55 12 -30 c7 -17 22 -68 33 -115z m-930 54 c1 5 8 3 16 -4 14 -11 13
-14 -3 -26 -10 -7 -26 -12 -36 -11 -11 1 -21 -4 -23 -11 -3 -8 1 -10 14 -5 16
6 17 5 3 -12 -8 -10 -14 -28 -12 -39 2 -16 1 -18 -7 -7 -9 14 -7 88 3 98 2 2
14 -1 26 -7 20 -11 21 -10 11 9 -6 11 -11 26 -10 33 0 7 4 4 9 -7 5 -11 9 -16
9 -11z m-86 -99 c-3 -9 -8 -14 -10 -11 -3 3 -2 9 2 15 9 16 15 13 8 -4z m74
-24 c0 -11 -5 -18 -9 -15 -4 3 -5 11 -1 19 7 21 12 19 10 -4z m3 -61 c0 -5 -2
-10 -4 -10 -3 0 -8 5 -11 10 -3 6 -1 10 4 10 6 0 11 -4 11 -10z m0 -55 c11
-13 10 -14 -4 -9 -9 3 -16 10 -16 15 0 13 6 11 20 -6z m260 -56 c0 -11 -4 -18
-10 -14 -5 3 -7 12 -3 20 7 21 13 19 13 -6z m30 11 c0 -5 -2 -10 -4 -10 -3 0
-8 5 -11 10 -3 6 -1 10 4 10 6 0 11 -4 11 -10z m1629 -52 c53 -119 117 -320
150 -473 l19 -84 -37 29 c-20 16 -64 37 -98 47 -50 14 -65 23 -74 45 -6 15 -8
32 -4 38 3 6 1 9 -6 8 -7 -2 -15 7 -18 20 -10 36 -61 93 -97 108 -78 33 -186
3 -227 -63 -13 -21 -32 -59 -43 -85 -10 -27 -23 -46 -29 -45 -5 2 -16 -3 -23
-12 -8 -9 -11 -10 -7 -3 9 17 -10 15 -25 -3 -7 -8 -17 -15 -22 -15 -6 0 0 9
13 20 32 26 9 26 -25 -1 -20 -16 -26 -17 -26 -6 0 15 -24 30 -33 21 -10 -10 6
-44 20 -44 8 0 11 -4 8 -10 -7 -12 -36 -14 -34 -2 3 18 -2 32 -12 32 -6 0 -8
-9 -4 -20 5 -14 2 -20 -9 -20 -9 0 -24 -5 -35 -11 -13 -9 -23 -9 -37 -1 -18
11 -17 11 6 12 34 0 54 15 45 30 -5 9 -4 11 3 6 8 -5 12 1 12 16 0 18 -2 20
-9 9 -8 -12 -12 -12 -24 -2 -10 7 -17 8 -21 2 -4 -5 1 -14 9 -19 15 -8 15 -10
0 -22 -13 -11 -14 -10 -8 6 6 17 5 17 -10 5 -11 -9 -17 -10 -17 -2 0 6 4 11 9
11 4 0 7 11 6 25 -2 14 0 23 3 21 4 -2 7 41 7 97 l0 101 91 41 c49 22 108 48
130 57 172 73 393 170 414 182 14 8 29 15 33 15 5 1 21 -27 36 -61z m-1628 4
c-6 -11 -7 -23 -3 -27 4 -4 1 -6 -7 -3 -8 2 -17 10 -19 18 -3 7 0 10 6 6 6 -3
14 3 17 15 4 11 9 18 12 16 2 -3 0 -14 -6 -25z m-42 -25 c8 -10 7 -14 -4 -14
-8 0 -15 6 -15 14 0 7 2 13 4 13 2 0 9 -6 15 -13z m265 -38 c-6 -11 -24 -2
-24 11 0 5 7 7 15 4 8 -4 12 -10 9 -15z m-269 1 c3 -5 1 -10 -4 -10 -6 0 -11
5 -11 10 0 6 2 10 4 10 3 0 8 -4 11 -10z m495 -32 c0 -19 -16 -5 -17 14 -2 18
0 20 7 8 5 -8 10 -18 10 -22z m-210 19 c0 -2 -9 -12 -20 -22 -24 -21 -27 -14
-4 9 15 15 24 20 24 13z m-4503 -221 c2 -160 5 -201 17 -215 8 -9 67 -54 130
-101 154 -113 153 -132 -4 -144 -172 -13 -216 -19 -246 -32 -17 -8 -77 -67
-135 -132 -140 -157 -145 -162 -167 -162 -43 0 -46 21 -29 183 20 180 21 221
6 250 -7 12 -56 70 -110 128 -99 106 -116 139 -83 157 9 5 80 7 158 4 119 -4
148 -2 178 12 21 10 75 64 138 137 145 171 144 171 147 -85z m4521 173 c-3 -8
-7 -3 -11 10 -4 17 -3 21 5 13 5 -5 8 -16 6 -23z m402 -9 c0 -5 -7 -10 -16
-10 -8 0 -12 -5 -9 -10 4 -6 11 -7 17 -4 6 4 5 -3 -2 -16 -7 -12 -17 -19 -26
-16 -8 3 -15 1 -15 -4 -1 -6 -2 -14 -3 -19 0 -5 -4 -13 -8 -17 -14 -13 -8 30
6 48 10 14 15 15 26 5 10 -10 10 -8 1 10 -15 28 -14 31 7 36 9 3 18 5 20 6 1
0 2 -3 2 -9z m-253 -16 c-3 -3 -12 -4 -19 -1 -8 3 -5 6 6 6 11 1 17 -2 13 -5z
m76 -24 c-6 -22 -7 -22 -13 -4 -4 10 -2 22 4 26 15 10 16 6 9 -22z m117 6 c0
-2 -7 -6 -15 -10 -8 -3 -15 -1 -15 4 0 6 7 10 15 10 8 0 15 -2 15 -4z m-150
-36 c-6 -11 -12 -20 -14 -20 -2 0 -2 9 1 20 3 11 9 20 15 20 5 0 4 -9 -2 -20z
m54 4 c3 -8 2 -12 -4 -9 -6 3 -10 10 -10 16 0 14 7 11 14 -7z m186 -24 c0 -31
-3 -38 -15 -34 -8 4 -23 0 -32 -7 -12 -10 -15 -10 -9 -1 10 16 -9 16 -26 -1
-14 -14 -58 -18 -58 -5 0 4 9 8 19 8 11 0 23 5 27 11 3 6 17 9 30 6 14 -2 27
0 30 4 3 5 0 9 -6 9 -6 0 -8 5 -5 10 3 6 11 10 16 10 6 0 8 -4 4 -9 -3 -5 -1
-12 5 -16 6 -4 9 4 8 19 -1 13 -6 22 -10 20 -4 -3 -8 0 -8 5 0 6 7 11 15 11
11 0 15 -11 15 -40z m-280 6 c0 -3 -4 -8 -10 -11 -5 -3 -10 -1 -10 4 0 6 5 11
10 11 6 0 10 -2 10 -4z m70 0 c0 -2 -7 -7 -16 -10 -8 -3 -12 -2 -9 4 6 10 25
14 25 6z m-197 -21 c-3 -9 -8 -14 -10 -11 -3 3 -2 9 2 15 9 16 15 13 8 -4z
m70 -40 c-3 -9 -8 -14 -10 -11 -3 3 -2 9 2 15 9 16 15 13 8 -4z m302 -15 c-3
-5 -11 -10 -16 -10 -6 0 -7 5 -4 10 3 6 11 10 16 10 6 0 7 -4 4 -10z m-50 -20
c3 -5 1 -10 -4 -10 -6 0 -11 5 -11 10 0 6 2 10 4 10 3 0 8 -4 11 -10z m70 -18
c-3 -3 -11 0 -18 7 -9 10 -8 11 6 5 10 -3 15 -9 12 -12z m764 -214 c21 -46 47
-90 57 -99 11 -9 56 -29 102 -44 126 -41 125 -72 -3 -112 -44 -14 -89 -32 -99
-42 -10 -9 -34 -49 -52 -89 -51 -110 -74 -108 -121 10 -31 80 -55 100 -141
119 -29 7 -64 23 -79 36 l-25 24 21 23 c14 15 45 28 83 36 78 17 109 45 144
127 50 121 62 122 113 11z m-459 -14 c-17 -15 -33 -24 -36 -21 -9 8 6 28 16
22 4 -3 13 2 20 10 7 8 17 15 22 15 5 0 -5 -12 -22 -26z m-55 6 c3 -5 1 -10
-4 -10 -6 0 -11 5 -11 10 0 6 2 10 4 10 3 0 8 -4 11 -10z m-20 -99 c-3 -6 -11
-11 -17 -11 -6 0 -6 6 2 15 14 17 26 13 15 -4z m939 -337 c3 -8 2 -12 -4 -9
-6 3 -10 10 -10 16 0 14 7 11 14 -7z m-1669 -89 c25 -72 62 -111 123 -128 71
-21 68 -45 -10 -82 -70 -33 -102 -71 -120 -142 -6 -24 -16 -43 -22 -43 -7 0
-20 23 -31 51 -26 75 -67 116 -130 134 -55 16 -81 37 -71 54 4 6 32 18 62 28
67 21 110 66 138 143 10 28 23 49 30 47 6 -2 20 -30 31 -62z m-5060 -145 c9
-9 14 -23 12 -31 -2 -8 -2 -11 0 -7 3 4 22 -6 44 -21 21 -16 55 -32 74 -35 31
-6 35 -10 30 -31 -3 -14 -7 -36 -10 -49 -23 -113 -24 -444 -2 -587 34 -216 48
-287 84 -419 228 -853 880 -1641 1693 -2050 227 -114 413 -178 664 -230 116
-24 320 -50 388 -50 l48 0 0 -196 0 -196 -57 5 c-32 3 -76 8 -98 12 -22 3 -53
8 -70 10 -65 8 -281 57 -291 66 -6 5 -13 6 -16 4 -9 -9 -338 111 -478 175
-153 69 -304 148 -400 209 -36 23 -77 49 -93 59 -172 107 -457 340 -631 517
-161 163 -410 469 -491 602 -11 18 -50 81 -86 141 -209 341 -374 779 -435
1152 -22 141 -27 514 -8 665 20 165 45 304 62 358 l15 47 18 -51 c10 -29 25
-60 34 -69z m454 -87 c2 -46 5 -65 12 -78 4 -5 14 -46 24 -90 9 -44 30 -121
46 -170 16 -50 29 -95 29 -101 0 -6 -16 -18 -36 -27 -20 -10 -60 -40 -89 -68
-42 -40 -54 -46 -59 -34 -3 9 -6 92 -5 183 0 180 24 356 49 372 11 7 11 11 1
23 -9 12 -9 16 1 20 23 9 25 8 27 -30z m6676 -127 c61 -2 208 -10 328 -17
l217 -13 0 -78 c0 -149 -56 -512 -120 -774 -37 -154 -161 -524 -175 -524 -6 0
-90 37 -180 80 -400 191 -497 241 -492 252 47 116 97 250 97 260 0 12 29 107
34 115 1 1 38 -9 81 -23 176 -55 322 -92 348 -87 43 8 87 66 87 114 0 33 -6
47 -31 70 -32 30 -62 40 -289 100 -69 18 -126 34 -128 35 -2 1 3 40 12 86 8
45 18 103 21 128 3 25 10 72 15 105 6 33 10 77 10 97 0 53 15 87 37 83 10 -2
68 -6 128 -9z m-1532 -33 c8 -10 23 -49 33 -88 25 -100 32 -108 129 -140 146
-47 150 -87 13 -130 -46 -14 -91 -33 -100 -42 -10 -9 -29 -54 -43 -100 -20
-66 -31 -86 -50 -95 -35 -16 -49 0 -80 91 -14 43 -31 85 -38 94 -7 9 -50 30
-96 46 -101 36 -119 51 -104 83 8 17 33 31 97 52 87 29 126 59 126 96 0 26 31
113 48 133 8 9 23 17 32 17 9 0 24 -8 33 -17z m-4494 -66 c6 -8 29 -72 52
-143 48 -149 69 -195 103 -221 13 -11 78 -41 143 -68 65 -26 124 -53 131 -59
25 -24 -1 -44 -121 -96 -192 -84 -185 -76 -257 -294 -72 -216 -90 -213 -167
27 -63 196 -56 188 -247 278 -142 66 -149 82 -57 123 32 14 76 32 98 40 67 24
120 54 141 81 12 14 41 88 67 164 58 174 81 208 114 168z m5221 -205 c43 -35
15 -112 -41 -112 -25 0 -59 35 -59 60 0 24 42 70 63 70 8 0 25 -8 37 -18z
m231 -495 c-27 -74 -59 -157 -71 -183 -69 -154 -195 -384 -210 -384 -4 0 -13
13 -19 28 -32 76 -155 154 -261 166 -164 18 -369 -105 -458 -272 -18 -34 -35
-62 -36 -62 -2 0 -29 11 -59 25 -75 35 -137 40 -220 21 -38 -9 -70 -16 -72
-16 -2 0 -17 29 -33 64 -17 35 -53 88 -81 117 -28 29 -50 54 -48 55 2 2 106
41 232 87 127 47 408 151 625 232 217 81 468 173 557 205 90 33 171 63 180 69
31 17 26 -10 -26 -152z m-6081 -22 c19 -23 99 -65 169 -89 l64 -21 36 -110
c45 -137 84 -216 127 -255 19 -17 48 -58 65 -93 78 -153 242 -368 417 -546
289 -293 621 -500 995 -620 199 -64 457 -106 625 -102 l52 1 0 -195 0 -195
-53 0 c-144 0 -417 53 -616 120 -406 135 -818 402 -1143 739 -331 343 -569
740 -711 1186 -25 77 -48 152 -51 168 -7 29 4 36 24 12z m909 -493 c176 -158
280 -230 493 -341 185 -98 346 -151 592 -198 111 -21 497 -27 631 -9 129 17
322 68 455 119 86 33 118 41 175 41 119 1 229 -68 279 -174 18 -40 20 -63 20
-210 0 -156 -1 -168 -24 -209 -39 -69 -109 -92 -150 -49 -18 20 -20 35 -20
167 0 168 -9 210 -51 245 -88 74 -218 8 -233 -118 l-7 -53 -57 -17 c-165 -51
-277 -127 -365 -245 l-40 -54 -126 6 c-373 19 -760 147 -1065 355 -269 183
-461 372 -630 620 l-56 84 45 43 c25 25 45 49 45 55 0 18 11 11 89 -58z m5584
-152 c169 -85 310 -157 312 -161 5 -6 -70 -151 -124 -239 -15 -25 -45 -74 -66
-110 -109 -183 -469 -625 -509 -625 -11 0 -102 85 -421 390 -111 107 -144 121
-205 90 -57 -30 -76 -103 -40 -159 10 -17 125 -134 255 -260 129 -126 235
-234 234 -240 -1 -38 -447 -367 -641 -474 l-57 -31 -3 87 c-2 48 -3 416 -3
817 l0 730 23 43 c64 120 186 196 269 168 24 -8 28 -18 38 -101 8 -64 34 -120
78 -170 36 -42 53 -54 197 -145 47 -30 141 -91 210 -136 69 -45 139 -85 157
-88 38 -9 81 11 112 50 48 61 17 118 -110 204 -51 34 -134 91 -185 126 l-93
65 52 77 c29 42 72 115 96 162 59 114 57 112 90 96 14 -7 165 -82 334 -166z
m-1592 -261 c15 -10 38 -40 51 -67 l23 -47 0 -485 c1 -267 -2 -554 -5 -638
l-5 -154 -215 -82 c-118 -46 -442 -173 -720 -284 -1181 -468 -1157 -460 -1204
-399 -21 28 -21 32 -21 655 0 569 2 630 17 664 39 87 102 144 207 186 29 12
57 22 61 22 4 0 13 -20 19 -44 26 -103 123 -195 230 -217 117 -24 228 9 318
94 105 99 143 191 143 342 l0 92 95 37 c52 20 97 36 100 36 3 0 5 -10 5 -22 0
-13 9 -42 20 -65 33 -73 79 -121 149 -156 57 -28 76 -32 146 -32 70 0 89 4
146 32 66 32 135 96 176 164 34 54 53 144 53 246 0 104 4 111 92 139 49 15 80
11 119 -17z"/>
<path d="M5241 7916 c-31 -17 -50 -53 -51 -94 0 -49 54 -102 105 -102 29 0 45
8 71 34 26 26 34 42 34 71 0 29 -8 45 -34 71 -37 37 -81 44 -125 20z"/>
<path d="M5709 7707 c-63 -42 -63 -133 0 -170 71 -42 163 1 163 75 0 46 -16
74 -55 98 -42 26 -67 25 -108 -3z"/>
<path d="M5295 6020 c3 -5 8 -10 11 -10 2 0 4 5 4 10 0 6 -5 10 -11 10 -5 0
-7 -4 -4 -10z"/>
<path d="M5220 6006 c0 -2 7 -9 15 -16 9 -7 15 -8 15 -2 0 5 -7 12 -15 16 -8
3 -15 4 -15 2z"/>
<path d="M5305 5970 c-3 -5 -1 -10 4 -10 6 0 11 5 11 10 0 6 -2 10 -4 10 -3 0
-8 -4 -11 -10z"/>
<path d="M5194 5958 c-3 -4 4 -8 15 -8 12 0 21 4 21 8 0 5 -7 9 -15 9 -9 0
-18 -4 -21 -9z"/>
<path d="M5193 5917 c-2 -16 0 -18 6 -8 5 7 14 10 20 7 6 -4 11 -5 11 -2 0 3
-8 10 -18 15 -14 8 -18 5 -19 -12z"/>
<path d="M5220 5825 c-14 -16 -10 -18 14 -9 9 3 16 10 16 15 0 14 -16 11 -30
-6z"/>
<path d="M6449 6171 c-34 -35 -37 -68 -8 -105 42 -53 139 -21 139 46 0 40 -10
57 -41 73 -40 21 -57 19 -90 -14z"/>
<path d="M5635 5830 c-3 -5 -1 -10 4 -10 6 0 11 5 11 10 0 6 -2 10 -4 10 -3 0
-8 -4 -11 -10z"/>
<path d="M5670 5791 c0 -6 4 -13 10 -16 6 -3 7 1 4 9 -7 18 -14 21 -14 7z"/>
<path d="M5717 5789 c7 -7 15 -10 18 -7 3 3 -2 9 -12 12 -14 6 -15 5 -6 -5z"/>
<path d="M5520 5750 c0 -5 5 -10 10 -10 6 0 10 5 10 10 0 6 -4 10 -10 10 -5 0
-10 -4 -10 -10z"/>
<path d="M5577 5725 c3 -8 9 -12 14 -9 12 7 11 11 -5 17 -10 4 -13 1 -9 -8z"/>
<path d="M5660 5730 c0 -5 5 -10 11 -10 5 0 7 5 4 10 -3 6 -8 10 -11 10 -2 0
-4 -4 -4 -10z"/>
<path d="M5760 5729 c0 -5 5 -7 10 -4 6 3 10 8 10 11 0 2 -4 4 -10 4 -5 0 -10
-5 -10 -11z"/>
<path d="M5490 5716 c0 -8 -6 -16 -12 -19 -7 -2 -1 -4 15 -4 20 0 25 3 17 12
-5 6 -7 15 -3 18 3 4 1 7 -5 7 -7 0 -12 -6 -12 -14z"/>
<path d="M5526 5722 c-3 -4 4 -9 15 -9 23 -2 25 3 4 10 -8 4 -16 3 -19 -1z"/>
<path d="M5623 5713 c-15 -6 -17 -39 -3 -48 6 -3 7 1 4 10 -4 8 -1 22 6 30 13
16 13 16 -7 8z"/>
<path d="M5446 5684 c-4 -9 -5 -17 -4 -18 2 -1 10 -7 19 -14 13 -10 19 -8 35
9 19 22 19 22 -1 12 -25 -13 -46 -6 -38 13 3 8 3 14 0 14 -3 0 -8 -7 -11 -16z"/>
<path d="M5533 5693 c4 -3 0 -14 -8 -23 -11 -12 -12 -17 -3 -17 7 0 23 -3 36
-7 15 -5 22 -3 22 5 0 7 -3 9 -7 6 -10 -11 -32 13 -26 29 3 8 -1 14 -8 14 -7
0 -9 -3 -6 -7z"/>
<path d="M5568 5673 c7 -3 16 -2 19 1 4 3 -2 6 -13 5 -11 0 -14 -3 -6 -6z"/>
<path d="M5645 5649 c-11 -17 1 -21 15 -4 8 9 8 15 2 15 -6 0 -14 -5 -17 -11z"/>
<path d="M5767 5651 c6 -7 9 -20 6 -27 -3 -8 -3 -14 0 -14 14 0 14 30 -1 41
-14 11 -15 11 -5 0z"/>
<path d="M5727 5629 c7 -7 15 -10 18 -7 3 3 -2 9 -12 12 -14 6 -15 5 -6 -5z"/>
<path d="M5660 5599 c7 -11 14 -18 17 -15 8 8 -5 36 -17 36 -7 0 -7 -6 0 -21z"/>
<path d="M5686 5605 c4 -8 7 -15 9 -15 2 0 5 7 9 15 3 9 0 15 -9 15 -9 0 -12
-6 -9 -15z"/>
<path d="M5751 5576 c-15 -8 -20 -16 -12 -20 6 -4 11 -3 11 2 0 5 10 14 23 20
12 6 18 11 12 11 -5 0 -21 -6 -34 -13z"/>
<path d="M5700 5573 c0 -6 8 -17 18 -24 16 -13 16 -13 2 6 -8 11 -16 22 -17
24 -2 2 -3 0 -3 -6z"/>
<path d="M6505 5269 c-10 -15 3 -25 16 -12 7 7 7 13 1 17 -6 3 -14 1 -17 -5z"/>
<path d="M6387 5253 c-3 -5 8 -8 23 -8 15 0 26 3 23 8 -2 4 -13 7 -23 7 -10 0
-21 -3 -23 -7z"/>
<path d="M6451 5218 c1 -17 3 -18 6 -6 3 11 11 15 21 12 15 -5 15 -4 2 5 -23
16 -30 13 -29 -11z"/>
<path d="M6353 5205 c0 -8 4 -12 9 -9 5 3 6 10 3 15 -9 13 -12 11 -12 -6z"/>
<path d="M6420 5210 c-13 -8 -12 -10 3 -10 9 0 17 5 17 10 0 12 -1 12 -20 0z"/>
<path d="M6520 5216 c0 -2 7 -7 16 -10 8 -3 12 -2 9 4 -6 10 -25 14 -25 6z"/>
<path d="M6557 5201 c-4 -17 -3 -21 5 -13 5 5 8 16 6 23 -3 8 -7 3 -11 -10z"/>
<path d="M6590 5216 c0 -2 7 -6 15 -10 8 -3 15 -1 15 4 0 6 -7 10 -15 10 -8 0
-15 -2 -15 -4z"/>
<path d="M6366 5174 c-10 -27 -7 -44 9 -44 8 0 15 6 15 13 1 6 7 1 14 -12 10
-18 14 -20 19 -9 8 23 -8 41 -32 33 -26 -8 -28 10 -3 24 15 9 15 10 1 11 -9 0
-20 -7 -23 -16z"/>
<path d="M6576 5182 c-2 -4 -1 -14 5 -22 7 -12 9 -10 9 8 0 23 -5 28 -14 14z"/>
<path d="M6428 5174 c6 -3 12 -12 12 -20 0 -8 4 -14 9 -14 18 0 4 35 -15 37
-10 2 -13 0 -6 -3z"/>
<path d="M6474 5160 c2 -14 5 -28 5 -32 1 -5 6 -8 12 -8 6 0 8 9 4 23 -11 33
-26 46 -21 17z"/>
<path d="M6523 5172 c-23 -15 -18 -34 10 -37 22 -3 27 0 26 18 0 12 -3 16 -6
10 -2 -7 -12 -13 -20 -13 -13 0 -13 3 -3 15 14 16 11 19 -7 7z"/>
<path d="M965 4219 c-4 -6 -5 -12 -2 -15 2 -3 7 2 10 11 7 17 1 20 -8 4z"/>
<path d="M978 4163 c7 -3 16 -2 19 1 4 3 -2 6 -13 5 -11 0 -14 -3 -6 -6z"/>
<path d="M5205 1432 c-83 -32 -156 -61 -163 -65 -18 -12 -17 -347 2 -347 7 0
44 13 82 28 38 16 107 41 154 57 47 16 91 33 98 38 9 7 12 55 12 178 0 155 -1
169 -17 168 -10 0 -86 -26 -168 -57z"/>
<path d="M4340 1104 l-165 -62 -3 -171 c-2 -132 0 -172 10 -176 7 -2 85 21
173 53 l160 58 3 174 c1 95 -1 176 -5 180 -5 3 -82 -22 -173 -56z"/>
<path d="M3065 8355 c-87 -22 -305 -95 -394 -132 -47 -20 -108 -44 -136 -55
-87 -34 -356 -174 -493 -257 -135 -81 -306 -201 -374 -263 l-37 -33 127 -111
128 -111 39 34 c54 47 248 177 369 248 241 141 628 303 894 375 46 13 86 28
88 35 5 12 -16 128 -35 191 -15 53 -29 71 -62 83 -39 13 -50 13 -114 -4z"/>
<path d="M4445 5629 c-4 -6 -5 -12 -2 -15 2 -3 7 2 10 11 7 17 1 20 -8 4z"/>
<path d="M4517 5632 c8 -5 8 -12 -2 -25 -10 -13 -14 -15 -18 -5 -2 7 -8 9 -13
5 -11 -11 15 -26 35 -20 10 3 7 -4 -8 -16 -28 -26 -42 -27 -35 -3 5 14 4 14
-4 2 -8 -10 -8 -18 0 -27 18 -22 64 25 64 64 0 23 -5 33 -15 33 -11 0 -12 -3
-4 -8z"/>
<path d="M4385 5610 c-3 -5 -1 -10 4 -10 6 0 11 5 11 10 0 6 -2 10 -4 10 -3 0
-8 -4 -11 -10z"/>
<path d="M4436 5573 c-6 -14 -5 -15 5 -6 7 7 10 15 7 18 -3 3 -9 -2 -12 -12z"/>
<path d="M4360 5570 c-8 -5 -11 -12 -7 -16 4 -4 13 -2 19 4 15 15 7 24 -12 12z"/>
<path d="M4400 5570 c-9 -6 -10 -10 -3 -10 6 0 15 5 18 10 8 12 4 12 -15 0z"/>
<path d="M4519 5535 c-3 -28 -4 -33 -11 -41 -11 -11 -10 -24 3 -24 5 0 8 4 5
9 -4 5 -2 11 2 13 13 5 24 58 12 58 -5 0 -11 -7 -11 -15z"/>
<path d="M4440 5519 c0 -5 5 -7 10 -4 6 3 10 8 10 11 0 2 -4 4 -10 4 -5 0 -10
-5 -10 -11z"/>
<path d="M4445 5491 c-3 -5 4 -12 15 -16 11 -3 20 -11 20 -16 0 -5 5 -9 12 -9
9 0 9 3 1 11 -6 6 -9 18 -6 25 6 16 -32 20 -42 5z"/>
<path d="M3910 2690 c-9 -6 -10 -10 -3 -10 6 0 15 5 18 10 8 12 4 12 -15 0z"/>
</g>
</svg>
